<?xml version="1.0" encoding="utf-8"?>
<svg xmlns="http://www.w3.org/2000/svg"
	xmlns:xlink="http://www.w3.org/1999/xlink"
	width="28px" height="28px" viewBox="0 0 28 28">
<path fillRule="evenodd" d="M 28 26.3C 28 26.3 19.74 18.03 19.74 18.03 21.25 16.14 22.17 13.72 22.17 11.1 22.17 4.97 17.2-0 11.08-0 4.96-0-0 4.97-0 11.1-0 17.22 4.97 22.2 11.08 22.2 13.72 22.2 16.14 21.27 18.05 19.73 18.05 19.73 26.3 28 26.3 28 26.3 28 28 26.3 28 26.3ZM 4.65 17.54C 2.93 15.82 1.99 13.54 1.99 11.1 1.99 8.67 2.94 6.38 4.65 4.67 6.36 2.95 8.66 1.99 11.08 1.99 13.51 1.99 15.8 2.94 17.51 4.66 19.23 6.38 20.18 8.66 20.18 11.1 20.18 13.53 19.23 15.82 17.51 17.54 15.8 19.25 13.51 20.2 11.08 20.2 8.66 20.21 6.37 19.26 4.65 17.54Z" fill="rgb(255,255,255)"/></svg>